
<svg width="24" height="24" viewBox="0 0 24 24" fill="none" xmlns="http://www.w3.org/2000/svg">
  <path d="M17.0388 12.6625C17.0612 16.1358 20.0625 17.3521 20.0938 17.3658C20.0738 17.4308 19.6321 18.9108 18.5588 20.4492C17.6388 21.7758 16.6863 23.0942 15.1863 23.1258C13.7138 23.1558 13.2221 22.2625 11.5163 22.2625C9.8138 22.2625 9.2688 23.0958 7.8796 23.1558C6.4271 23.2158 5.3213 21.7475 4.3863 20.4308C2.4688 17.7242 0.9988 12.8408 2.9838 9.6075C3.9638 8.0025 5.6838 7.0025 7.5375 6.9725C8.9375 6.9425 10.2313 7.9358 11.0754 7.9358C11.9163 7.9358 13.4821 6.7875 15.1754 6.9175C15.9404 6.9425 17.9254 7.2175 19.1913 9.0675C19.0788 9.1375 17.0204 10.3358 17.0388 12.6625ZM14.1179 4.5075C14.8963 3.5425 15.4138 2.2108 15.2613 0.8625C14.1038 0.9075 12.7221 1.6325 11.9154 2.5875C11.1938 3.4308 10.5679 4.7992 10.7413 6.1108C12.0329 6.2075 13.3388 5.4725 14.1179 4.5075Z" fill="currentColor"/>
</svg>
